<?xml version="1.0" encoding="iso-8859-1"?>
<!-- Generator: Adobe Illustrator 19.0.0, SVG Export Plug-In . SVG Version: 6.00 Build 0)  -->
<svg version="1.1" id="Layer_1" xmlns="http://www.w3.org/2000/svg" xmlns:xlink="http://www.w3.org/1999/xlink" x="0px" y="0px"
	 viewBox="0 0 512 512" style="enable-background:new 0 0 512 512;" xml:space="preserve">
<circle style="fill:#FEE187;" cx="256" cy="256" r="256"/>
<path style="fill:#FFC61B;" d="M511.952,259.831L407.638,156.651l-75.979,102.578l-99.602-99.602l-26.76,28.451l-10.638,21.376
	l-67.522,102.283l192.279,192.341C428.939,476.165,510.221,377.634,511.952,259.831z"/>
<path style="fill:#FF314F;" d="M246.486,426.158c4.555,6.718,14.472,6.718,19.027,0c36.373-53.662,164.6-120.299,164.6-206.581
	c0-59.504-38.978-87.057-87.057-87.057s-87.057,38.978-87.057,87.057c0-48.08-38.978-87.057-87.057-87.057
	s-87.057,27.553-87.057,87.057C81.886,305.859,210.113,372.496,246.486,426.158z"/>
<path style="fill:#A30F44;" d="M343.057,132.52c-48.08,0-87.057,38.976-87.057,87.057c0-0.212-0.031-0.417-0.031-0.631v212.247
	c3.629,0.01,7.261-1.667,9.545-5.036c36.373-53.662,164.6-120.299,164.6-206.581C430.114,160.073,391.137,132.52,343.057,132.52z"/>
<path style="fill:#FEE187;" d="M204.105,241.035h103.788l20.758,41.515l-36.481,72.964c-3.084,6.17-9.39,10.068-16.289,10.068
	h-39.764c-6.897,0-13.203-3.898-16.289-10.068l-36.481-72.964L204.105,241.035z"/>
<g>
	<path style="fill:#FFC61B;" d="M307.895,241.035h-52.022V365.58h20.009c6.897,0,13.203-3.896,16.287-10.066l36.481-72.964
		L307.895,241.035z"/>
	<path style="fill:#FFC61B;" d="M202.645,230.467l-40.657,27.105c-3.496,2.331-4.441,7.056-2.11,10.552l27.105,40.657
		c3.76,5.641,12.464,3.918,13.793-2.729l13.552-67.762C215.657,231.645,208.286,226.707,202.645,230.467z"/>
</g>
<g>
	<path style="fill:#E09112;" d="M309.355,230.467l40.657,27.105c3.496,2.331,4.441,7.056,2.11,10.552l-27.105,40.657
		c-3.76,5.641-12.464,3.918-13.793-2.729l-13.552-67.762C296.343,231.645,303.714,226.707,309.355,230.467z"/>
	<rect x="251.363" y="303.304" style="fill:#E09112;" width="9.276" height="62.267"/>
</g>
<rect x="255.879" y="303.304" style="fill:#FF5419;" width="4.767" height="62.267"/>
<path style="fill:#D35933;" d="M269.219,305.002l-9.525,11.755c-1.903,2.35-5.487,2.35-7.39,0l-9.525-11.755
	c-2.519-3.11-0.307-7.751,3.696-7.751h19.049C269.526,297.251,271.739,301.892,269.219,305.002z"/>
<path style="fill:#B54324;" d="M265.525,297.251h-9.652v21.254c1.414,0.038,2.843-0.536,3.824-1.748l9.525-11.755
	C271.739,301.892,269.526,297.251,265.525,297.251z"/>
<circle style="fill:#59595B;" cx="224.866" cy="279.411" r="8.806"/>
<circle style="fill:#272525;" cx="285.565" cy="279.411" r="8.806"/>
<g>
</g>
<g>
</g>
<g>
</g>
<g>
</g>
<g>
</g>
<g>
</g>
<g>
</g>
<g>
</g>
<g>
</g>
<g>
</g>
<g>
</g>
<g>
</g>
<g>
</g>
<g>
</g>
<g>
</g>
</svg>
